inDegrees=yes
name=ik_S41_A07_T01
DataType=double
version=3
OpenSimVersion=4.3-2021-08-27-4bc7ad9
endheader
time	pelvis_tilt	pelvis_list	pelvis_rotation	pelvis_tx	pelvis_ty	pelvis_tz	hip_flexion_r	hip_adduction_r	hip_rotation_r	knee_angle_r	knee_angle_r_beta	ankle_angle_r	subtalar_angle_r	mtp_angle_r	hip_flexion_l	hip_adduction_l	hip_rotation_l	knee_angle_l	knee_angle_l_beta	ankle_angle_l	subtalar_angle_l	mtp_angle_l	lumbar_extension	lumbar_bending	lumbar_rotation	arm_flex_r	arm_add_r	arm_rot_r	elbow_flex_r	pro_sup_r	wrist_flex_r	wrist_dev_r	arm_flex_l	arm_add_l	arm_rot_l	elbow_flex_l	pro_sup_l	wrist_flex_l	wrist_dev_l
0	0	0	0	0	0.9399999999999999	0	0	0	0	0	0	0	0	0	0	0	0	0	0	0	0	0	0	0	0	0	0	0	0	89.99999999963507	0	0	0	0	0	0	89.99999999869995	0	0
0.02	-10.55156539365361	-5.506786097340876	22.26340589659507	0	0.9399999999999999	0	2.76022882753432	-1.290692797575087	-0.9295388689112377	4.309802625061594	0.0752202459184195	0	0	0	2.76022882753432	-1.290692797575087	-0.9295388689112377	4.309802625061594	0.0752202459184195	0	0	0	-9.509257811896422	-4.796973448188252	6.630481295002732	33.7671044642808	-0.4754185869610158	-0.127534392582138	23.76068666937881	112.1811300892924	0	0	32.48365798764977	2.184640914109467	10.60694903663082	22.11297502878979	103.3605256121931	0	0
0.04	-10.48156316911874	-5.531286054067967	22.43421777989574	0	0.9399999999999999	0	11.29467400961887	-5.314899859579421	-3.670254679147732	16.68664024248704	0.2912368133271839	0	0	0	11.29467400961887	-5.314899859579421	-3.670254679147732	16.68664024248704	0.2912368133271839	0	0	0	-9.559984279438646	-4.726436964491474	6.449245430533353	33.75242753058187	-0.4443764445108012	-0.1141022072421923	23.77730689130405	112.2283130733459	0	0	32.49570322209352	2.156876445282792	10.64794437940288	22.08279349133286	103.3654567951156	0	0
0.06	-10.46988090081864	-5.529293291013882	22.47694398492377	0	0.9399999999999999	0	11.5495415029961	-5.378226433193417	-3.748658642245164	16.9018504678319	0.2949929403434105	0	0	0	11.5495415029961	-5.378226433193417	-3.748658642245164	16.9018504678319	0.2949929403434105	0	0	0	-9.562375230404498	-4.708178541669482	6.425995907066729	33.73602221523659	-0.463813056505962	-0.08075020576759923	23.85121911446373	112.1125800705653	0	0	32.47490244225119	2.160632839644989	10.69581566747873	22.14745376780602	103.32101106668	0	0
0.08	-10.46640983933241	-5.525399911320687	22.46259604997667	0	0.9399999999999999	0	11.55778009749996	-5.378773866127614	-3.751258889335974	16.90618170105853	0.295068534623887	0	0	0	11.55778009749996	-5.378773866127614	-3.751258889335974	16.90618170105853	0.295068534623887	0	0	0	-9.557614003669762	-4.70667958793237	6.434088447766202	33.7480247791974	-0.4610167720072802	-0.08364622675459119	23.74934481784695	112.1976288432458	0	0	32.51669478337539	2.171581969338622	10.69907069634332	22.02003816293896	103.3462066067589	0	0
0.1	-10.43303564507595	-5.537264829286849	22.59033955080982	0	0.9399999999999999	0	12.54140934975692	-5.667738315059519	-4.057172184449438	17.78948048990902	0.3104850067682064	0	0	0	12.54140934975692	-5.667738315059519	-4.057172184449438	17.78948048990902	0.3104850067682064	0	0	0	-9.581104712961512	-4.655230044178879	6.335530400901513	33.83116075283717	-0.4507167524403907	-0.08044017777690719	23.64750242566121	112.2016766537269	0	0	32.52760681650011	2.205562324778918	10.71426952732901	21.94493095069847	103.3863304609922	0	0
0.12	-10.42270118354835	-5.533960367220174	22.59117544677188	0	0.9399999999999999	0	12.57193556089019	-5.680512425923887	-4.06825616727479	17.8163713070752	0.3109543400663079	0	0	0	12.57193556089019	-5.680512425923887	-4.06825616727479	17.8163713070752	0.3109543400663079	0	0	0	-9.571207414984492	-4.654742605120184	6.334753077917676	33.83389702815692	-0.4349651604870813	-0.06438181269847565	23.62039102256301	112.215812093915	0	0	32.5250847960764	2.221744461068993	10.73277740464535	21.90806022411672	103.3938970728007	0	0
0.14	-10.41725883748565	-5.525547171134757	22.59196160273249	0	0.9399999999999999	0	12.55207856416731	-5.679143260685401	-4.06384389316346	17.79856846308293	0.310643621822424	0	0	0	12.55207856416731	-5.679143260685401	-4.06384389316346	17.79856846308293	0.310643621822424	0	0	0	-9.561544334621306	-4.651420331686632	6.338713478645228	33.83588186400817	-0.4423554859957278	-0.07081910665619867	23.57372918744051	112.2461564540284	0	0	32.53658663495292	2.227242972179497	10.73159177024187	21.85653253962177	103.4137017577555	0	0
0.16	-10.40358972829778	-5.520573075948923	22.58877431236047	0	0.9399999999999999	0	12.58180877091227	-5.691192233259446	-4.074644652316873	17.82411459184171	0.311089485880403	0	0	0	12.58180877091227	-5.691192233259446	-4.074644652316873	17.82411459184171	0.311089485880403	0	0	0	-9.547879982228514	-4.650894034672717	6.338505340393026	33.8452121846119	-0.4322627846119346	-0.0566510508128563	23.56109540236646	112.2488412452902	0	0	32.52883992709641	2.23525543194065	10.76230209030642	21.83309606427925	103.4268754765393	0	0
0.18	-10.39645376825656	-5.514071708757456	22.61291589602408	0	0.9399999999999999	0	12.69678889008644	-5.728069145715858	-4.112549665773845	17.92371359798377	0.312827816469296	0	0	0	12.69678889008644	-5.728069145715858	-4.112549665773845	17.92371359798377	0.312827816469296	0	0	0	-9.544043493058576	-4.640293625222169	6.333957206503618	33.833874244696	-0.4530898065265964	-0.04347876242379824	23.6010961900537	112.2098554097615	0	0	32.5579767281459	2.215497542742212	10.78818554876524	21.86464666194708	103.418897194312	0	0
